<?xml version="1.0" encoding="utf-8"?>
<!-- Generator: Adobe Illustrator 16.0.0, SVG Export Plug-In . SVG Version: 6.00 Build 0)  -->
<!DOCTYPE svg PUBLIC "-//W3C//DTD SVG 1.1//EN" "http://www.w3.org/Graphics/SVG/1.1/DTD/svg11.dtd">
<svg version="1.1" id="Layer_1" xmlns="http://www.w3.org/2000/svg" xmlns:xlink="http://www.w3.org/1999/xlink" x="0px" y="0px"
	 width="48px" height="48px" viewBox="0 0 48 48" enable-background="new 0 0 48 48" xml:space="preserve">
<rect x="-2688.235" y="-129.412" display="none" fill="#2B2B60" width="48" height="48"/>
<path fill="#563D7C" d="M9.97,4.881c-2.739,0-4.766,2.397-4.675,4.997c0.087,2.498-0.026,5.732-0.84,8.371
	C3.638,20.894,2.256,22.57,0,22.785v2.43c2.256,0.215,3.638,1.891,4.455,4.537c0.814,2.637,0.928,5.871,0.84,8.369
	c-0.091,2.6,1.936,4.998,4.675,4.998h28.064c2.738,0,4.765-2.398,4.674-4.998c-0.087-2.498,0.026-5.732,0.841-8.369
	c0.817-2.646,2.194-4.322,4.451-4.537v-2.43c-2.257-0.215-3.634-1.891-4.451-4.537c-0.814-2.638-0.928-5.873-0.841-8.371
	c0.091-2.599-1.936-4.997-4.674-4.997H9.97L9.97,4.881z M32.542,28.418c0,3.58-2.67,5.752-7.101,5.752h-7.543
	c-0.216,0-0.423-0.086-0.575-0.238c-0.153-0.154-0.238-0.359-0.238-0.576V14.644c0-0.216,0.085-0.423,0.238-0.575
	c0.152-0.153,0.359-0.238,0.575-0.238h7.5c3.694,0,6.119,2.001,6.119,5.074c0,2.157-1.631,4.088-3.709,4.426v0.113
	C30.638,23.753,32.542,25.713,32.542,28.418z M24.619,16.409h-4.301v6.075h3.623c2.8,0,4.344-1.128,4.344-3.144
	C28.284,17.452,26.957,16.409,24.619,16.409z M20.318,24.895v6.695h4.459c2.915,0,4.459-1.17,4.459-3.369s-1.587-3.326-4.646-3.326
	H20.318L20.318,24.895z"/>
</svg>
