<?xml version="1.0" encoding="utf-8"?>
<!-- Generator: Adobe Illustrator 16.0.0, SVG Export Plug-In . SVG Version: 6.00 Build 0)  -->
<!DOCTYPE svg PUBLIC "-//W3C//DTD SVG 1.1//EN" "http://www.w3.org/Graphics/SVG/1.1/DTD/svg11.dtd">
<svg version="1.1" id="Layer_1" xmlns="http://www.w3.org/2000/svg" xmlns:xlink="http://www.w3.org/1999/xlink" x="0px" y="0px"
	 width="48px" height="48px" viewBox="0 0 48 48" enable-background="new 0 0 48 48" xml:space="preserve">
<path fill="#DBB293" d="M44.211,11.361L24.996,0.268c-0.617-0.356-1.378-0.356-1.995,0L3.787,11.361
	c-0.52,0.299-0.839,0.854-0.839,1.453v22.372c0,0.6,0.319,1.151,0.839,1.453l19.216,11.094c0.616,0.354,1.378,0.354,1.996,0
	l19.215-11.094c0.521-0.302,0.841-0.854,0.841-1.453V12.814C45.051,12.215,44.73,11.661,44.211,11.361L44.211,11.361L44.211,11.361z
	 M43.004,13.711L24.456,45.839c-0.126,0.218-0.457,0.129-0.457-0.122V24.68c0-0.42-0.226-0.809-0.589-1.02L5.191,13.141
	c-0.217-0.125-0.129-0.457,0.123-0.457h37.098C42.939,12.686,43.27,13.256,43.004,13.711L43.004,13.711L43.004,13.711z"/>
</svg>
