<?xml version="1.0" encoding="utf-8"?>
<!-- Generator: Adobe Illustrator 16.0.0, SVG Export Plug-In . SVG Version: 6.00 Build 0)  -->
<!DOCTYPE svg PUBLIC "-//W3C//DTD SVG 1.1//EN" "http://www.w3.org/Graphics/SVG/1.1/DTD/svg11.dtd">
<svg version="1.1" id="Layer_1" xmlns="http://www.w3.org/2000/svg" xmlns:xlink="http://www.w3.org/1999/xlink" x="0px" y="0px"
	 width="48px" height="48px" viewBox="0 0 48 48" enable-background="new 0 0 48 48" xml:space="preserve">
<linearGradient id="SVGID_1_" gradientUnits="userSpaceOnUse" x1="-175.2349" y1="224.0703" x2="-175.1836" y2="224.0703" gradientTransform="matrix(945.7107 0 0 -942.0034 165721.7344 211099.25)">
	<stop  offset="0" style="stop-color:#EA2845"/>
	<stop  offset="1" style="stop-color:#EA2868"/>
</linearGradient>
<path fill="url(#SVGID_1_)" d="M28.279,0c-0.348,0-0.672,0.074-0.971,0.174c0.635,0.423,0.983,0.983,1.158,1.618
	c0.012,0.087,0.037,0.149,0.049,0.236c0.014,0.074,0.025,0.149,0.025,0.224c0.05,1.096-0.286,1.232-0.523,1.88
	c-0.36,0.834-0.261,1.729,0.175,2.451c0.038,0.087,0.087,0.187,0.149,0.274c-0.473-3.149,2.153-3.622,2.639-4.605
	c0.037-0.858-0.672-1.431-1.232-1.829C29.213,0.1,28.728,0,28.279,0 M32.237,0.709c-0.05,0.286-0.013,0.212-0.025,0.361
	C32.2,1.17,32.2,1.294,32.188,1.394c-0.025,0.1-0.05,0.199-0.087,0.299c-0.025,0.1-0.063,0.199-0.1,0.299
	c-0.05,0.1-0.087,0.187-0.137,0.286c-0.038,0.05-0.063,0.1-0.1,0.149l-0.075,0.112c-0.063,0.087-0.124,0.174-0.187,0.248
	c-0.075,0.075-0.137,0.162-0.224,0.225v0.012c-0.075,0.063-0.149,0.138-0.237,0.199c-0.261,0.199-0.56,0.349-0.833,0.535
	C30.121,3.82,30.034,3.87,29.96,3.945c-0.087,0.062-0.162,0.124-0.236,0.198c-0.088,0.075-0.149,0.149-0.225,0.237
	c-0.062,0.074-0.137,0.161-0.187,0.248c-0.063,0.088-0.124,0.175-0.174,0.262c-0.05,0.1-0.087,0.187-0.137,0.286
	c-0.038,0.1-0.075,0.187-0.1,0.286c-0.033,0.103-0.063,0.207-0.088,0.312c-0.012,0.05-0.012,0.111-0.024,0.162
	c-0.013,0.05-0.013,0.099-0.024,0.148c0,0.1-0.014,0.212-0.014,0.312c0,0.075,0,0.149,0.014,0.224c0,0.1,0.012,0.199,0.037,0.312
	c0.012,0.1,0.037,0.199,0.063,0.299c0.037,0.1,0.062,0.199,0.099,0.299c0.025,0.062,0.063,0.124,0.088,0.174l-2.863-1.107
	c-0.484-0.137-0.957-0.262-1.443-0.373l-0.784-0.188c-0.749-0.149-1.505-0.261-2.265-0.336c-0.025,0-0.038-0.012-0.063-0.012
	c-0.747-0.075-1.481-0.112-2.228-0.112c-0.548,0-1.095,0.025-1.63,0.063c-0.759,0.05-1.519,0.149-2.277,0.273
	c-0.187,0.024-0.374,0.063-0.56,0.1c-0.386,0.074-0.759,0.162-1.12,0.249l-0.56,0.149c-0.187,0.074-0.361,0.161-0.535,0.236
	l-0.411,0.187c-0.025,0.013-0.05,0.013-0.062,0.025c-0.125,0.062-0.237,0.111-0.349,0.174c-0.037,0.013-0.063,0.024-0.087,0.037
	c-0.137,0.063-0.274,0.137-0.386,0.199c-0.087,0.037-0.175,0.087-0.249,0.124c-0.038,0.025-0.087,0.05-0.112,0.063
	c-0.112,0.063-0.224,0.125-0.323,0.187c-0.112,0.063-0.212,0.125-0.299,0.188c-0.087,0.062-0.174,0.111-0.249,0.174
	c-0.012,0.013-0.025,0.013-0.037,0.024c-0.075,0.05-0.162,0.112-0.236,0.175L9.898,8.226L9.712,8.375
	c-0.025,0.013-0.05,0.037-0.075,0.05c-0.062,0.05-0.124,0.112-0.187,0.162c-0.012,0.024-0.037,0.037-0.05,0.05
	C9.326,8.711,9.251,8.773,9.177,8.848c-0.012,0-0.012,0.013-0.025,0.025C9.077,8.936,9.002,9.01,8.928,9.085
	C8.916,9.097,8.916,9.109,8.903,9.109c-0.065,0.063-0.128,0.13-0.187,0.199c-0.025,0.024-0.062,0.05-0.087,0.074
	C8.567,9.458,8.493,9.532,8.418,9.607C8.405,9.632,8.38,9.645,8.368,9.67c-0.1,0.099-0.187,0.198-0.287,0.298l-0.037,0.037
	c-0.199,0.212-0.411,0.424-0.635,0.61c-0.221,0.197-0.454,0.38-0.697,0.548c-0.241,0.169-0.491,0.327-0.747,0.473
	c-0.254,0.14-0.516,0.265-0.784,0.373c-0.265,0.112-0.535,0.212-0.809,0.299c-0.522,0.112-1.058,0.323-1.518,0.361
	c-0.1,0-0.211,0.024-0.311,0.037c-0.112,0.024-0.212,0.05-0.312,0.074l-0.298,0.112c-0.1,0.037-0.199,0.087-0.299,0.137
	c-0.087,0.063-0.187,0.112-0.274,0.175c-0.087,0.062-0.174,0.137-0.249,0.211c-0.087,0.063-0.174,0.149-0.249,0.225
	c-0.075,0.087-0.149,0.161-0.211,0.249c-0.063,0.1-0.137,0.187-0.187,0.286c-0.062,0.087-0.125,0.187-0.174,0.286
	c-0.05,0.111-0.1,0.211-0.137,0.323c-0.039,0.107-0.077,0.215-0.112,0.323c-0.025,0.1-0.05,0.199-0.063,0.299
	c0,0.013-0.012,0.025-0.012,0.037c-0.025,0.112-0.025,0.262-0.038,0.337c-0.012,0.087-0.025,0.161-0.025,0.248
	c0,0.05,0,0.112,0.013,0.162c0.013,0.087,0.025,0.162,0.05,0.236c0.025,0.075,0.05,0.149,0.087,0.225v0.012
	c0.038,0.075,0.087,0.149,0.137,0.225c0.05,0.074,0.1,0.149,0.162,0.224c0.063,0.063,0.137,0.137,0.212,0.199
	c0.074,0.074,0.149,0.137,0.236,0.199c0.298,0.261,0.373,0.349,0.759,0.548c0.063,0.037,0.125,0.062,0.199,0.1
	c0.013,0,0.025,0.012,0.038,0.012c0,0.025,0,0.038,0.012,0.063c0.013,0.1,0.037,0.199,0.063,0.299
	c0.023,0.103,0.057,0.202,0.1,0.299c0.037,0.074,0.062,0.149,0.099,0.224c0.013,0.025,0.025,0.05,0.038,0.063
	c0.05,0.1,0.1,0.187,0.149,0.273l0.187,0.262c0.062,0.074,0.137,0.162,0.211,0.236s0.149,0.137,0.236,0.212
	c0,0,0.013,0.012,0.025,0.012c0.074,0.063,0.149,0.125,0.224,0.175c0.087,0.063,0.174,0.111,0.274,0.161
	c0.087,0.05,0.187,0.1,0.286,0.137c0.075,0.038,0.162,0.063,0.249,0.088c0.013,0.012,0.025,0.012,0.05,0.024
	c0.05,0.013,0.112,0.025,0.162,0.037c-0.037,0.673-0.05,1.307,0.05,1.531c0.111,0.249,0.659-0.511,1.207-1.382
	c-0.075,0.859-0.125,1.867,0,2.166c0.137,0.311,0.884-0.66,1.531-1.73c8.824-2.041,16.875,4.058,17.722,12.669
	c-0.162-1.344-1.817-2.091-2.576-1.904c-0.373,0.921-1.008,2.104-2.028,2.838c0.089-0.831,0.047-1.671-0.125-2.489
	c-0.274,1.146-0.809,2.216-1.543,3.137c-1.182,0.087-2.364-0.485-2.986-1.345c-0.05-0.037-0.063-0.111-0.1-0.161
	c-0.038-0.088-0.075-0.175-0.1-0.262c-0.036-0.084-0.062-0.171-0.075-0.262c-0.013-0.087-0.013-0.174-0.013-0.273v-0.187
	c0.013-0.087,0.038-0.174,0.062-0.262c0.025-0.087,0.05-0.174,0.087-0.261c0.05-0.088,0.087-0.175,0.149-0.262
	c0.211-0.598,0.211-1.083-0.174-1.369c-0.075-0.049-0.154-0.09-0.236-0.124c-0.05-0.013-0.112-0.037-0.162-0.05
	c-0.038-0.013-0.063-0.025-0.1-0.038c-0.087-0.024-0.174-0.049-0.261-0.062c-0.085-0.024-0.173-0.037-0.262-0.037
	c-0.087-0.013-0.187-0.025-0.273-0.025c-0.063,0-0.125,0.013-0.187,0.013c-0.1,0-0.187,0.013-0.273,0.037
	c-0.087,0.013-0.174,0.025-0.262,0.05c-0.087,0.025-0.174,0.05-0.261,0.087c-0.087,0.038-0.162,0.075-0.249,0.112
	c-0.075,0.037-0.149,0.087-0.236,0.125c-2.899,1.892-1.17,6.321,0.809,7.604c-0.747,0.137-1.506,0.299-1.717,0.46l-0.025,0.025
	c0.536,0.323,1.095,0.597,1.68,0.834c0.796,0.261,1.643,0.497,2.016,0.597v0.013c1.031,0.212,2.085,0.287,3.136,0.225
	c5.513-0.387,10.03-4.58,10.852-10.105c0.024,0.111,0.05,0.211,0.074,0.323c0.038,0.224,0.087,0.46,0.112,0.697v0.013
	c0.025,0.111,0.037,0.224,0.05,0.323v0.05c0.013,0.111,0.025,0.224,0.025,0.323c0.012,0.137,0.024,0.273,0.024,0.411v0.198
	c0,0.063,0.013,0.138,0.013,0.199c0,0.075-0.013,0.149-0.013,0.225v0.174c0,0.087-0.013,0.162-0.013,0.249c0,0.05,0,0.1-0.013,0.162
	c0,0.087-0.012,0.174-0.012,0.273c-0.013,0.037-0.013,0.075-0.013,0.112c-0.013,0.1-0.025,0.187-0.037,0.286
	c0,0.037,0,0.074-0.013,0.111c-0.013,0.125-0.037,0.237-0.05,0.361v0.025c-0.025,0.111-0.05,0.236-0.075,0.349v0.037l-0.074,0.336
	c0,0.012-0.013,0.037-0.013,0.05c-0.024,0.111-0.05,0.224-0.087,0.336v0.037c-0.037,0.125-0.074,0.236-0.1,0.349
	c-0.013,0.013-0.013,0.024-0.013,0.024l-0.111,0.374c-0.051,0.124-0.088,0.236-0.137,0.36c-0.051,0.125-0.088,0.249-0.138,0.361
	c-0.05,0.124-0.099,0.236-0.149,0.36h-0.012c-0.051,0.112-0.1,0.237-0.162,0.349c-0.013,0.037-0.025,0.063-0.037,0.087
	c-0.013,0.013-0.013,0.025-0.025,0.038c-0.809,1.63-2.003,3.062-3.497,4.182c-0.1,0.062-0.199,0.137-0.299,0.211
	c-0.024,0.025-0.062,0.037-0.087,0.063c-0.087,0.062-0.174,0.124-0.273,0.187l0.037,0.074h0.013l0.522-0.074h0.013
	c0.323-0.05,0.646-0.112,0.971-0.174c0.087-0.013,0.187-0.038,0.273-0.063c0.063-0.013,0.111-0.025,0.174-0.037
	c0.088-0.013,0.175-0.038,0.262-0.05c0.074-0.025,0.149-0.038,0.225-0.063c1.244-0.299,2.451-0.709,3.608-1.194
	c-1.979,2.7-4.63,4.878-7.728,6.31c1.431-0.1,2.862-0.337,4.244-0.734c5.016-1.481,9.234-4.854,11.761-9.396
	c-0.514,2.882-1.656,5.614-3.349,8.002c1.206-0.796,2.321-1.722,3.323-2.763c2.788-2.912,4.617-6.608,5.239-10.578
	c0.425,1.97,0.546,3.992,0.361,5.999c8.984-12.532,0.746-25.524-2.701-28.947c-0.012-0.024-0.024-0.037-0.024-0.062
	c-0.013,0.013-0.013,0.013-0.013,0.024c0-0.013,0-0.013-0.013-0.024c0,0.149-0.012,0.298-0.024,0.447
	c-0.037,0.287-0.075,0.561-0.125,0.834c-0.062,0.274-0.137,0.548-0.211,0.821c-0.089,0.27-0.188,0.535-0.299,0.797
	c-0.114,0.258-0.239,0.511-0.373,0.759c-0.137,0.236-0.287,0.485-0.448,0.71c-0.16,0.231-0.33,0.455-0.511,0.672
	c-0.187,0.224-0.386,0.423-0.584,0.622c-0.117,0.107-0.238,0.211-0.361,0.311c-0.1,0.088-0.187,0.162-0.286,0.249
	c-0.225,0.175-0.448,0.337-0.697,0.485c-0.236,0.149-0.485,0.299-0.734,0.424c-0.261,0.124-0.522,0.236-0.783,0.349
	c-0.262,0.099-0.536,0.187-0.81,0.261c-0.275,0.074-0.554,0.137-0.834,0.187c-0.286,0.05-0.572,0.075-0.846,0.1
	c-0.199,0.013-0.398,0.025-0.598,0.025c-0.286,0-0.572-0.025-0.847-0.05c-0.286-0.025-0.572-0.063-0.846-0.125
	c-0.286-0.05-0.561-0.124-0.834-0.211h-0.013c0.274-0.025,0.548-0.05,0.821-0.1c0.281-0.049,0.56-0.111,0.834-0.187
	c0.274-0.074,0.544-0.162,0.81-0.262c0.273-0.1,0.535-0.224,0.783-0.349c0.262-0.124,0.498-0.261,0.747-0.41
	c0.236-0.162,0.473-0.324,0.697-0.498c0.223-0.173,0.435-0.36,0.635-0.561c0.211-0.187,0.397-0.397,0.584-0.609
	c0.183-0.218,0.356-0.442,0.523-0.672c0.024-0.037,0.05-0.087,0.074-0.125c0.125-0.198,0.249-0.397,0.361-0.597
	c0.137-0.247,0.261-0.501,0.373-0.76c0.112-0.26,0.212-0.526,0.299-0.796c0.087-0.262,0.149-0.535,0.212-0.81
	c0.05-0.286,0.1-0.56,0.124-0.834c0.025-0.285,0.05-0.572,0.05-0.846c0-0.199-0.013-0.398-0.025-0.598
	c-0.024-0.286-0.062-0.56-0.099-0.834c-0.05-0.28-0.111-0.559-0.188-0.833c-0.087-0.262-0.174-0.535-0.273-0.797
	S37.34,5.189,37.215,4.94c-0.137-0.249-0.273-0.498-0.423-0.734c-0.159-0.233-0.325-0.461-0.498-0.685
	c-0.188-0.215-0.378-0.426-0.572-0.635c-0.104-0.106-0.213-0.21-0.323-0.311c-0.558-0.434-1.135-0.84-1.73-1.22
	c-0.087-0.05-0.161-0.087-0.249-0.125C33.009,0.971,32.623,0.834,32.237,0.709L32.237,0.709z"/>
</svg>
